<?xml version="1.0" encoding="us-ascii" standalone="no"?><svg xmlns="http://www.w3.org/2000/svg" xmlns:xlink="http://www.w3.org/1999/xlink" contentStyleType="text/css" height="820px" preserveAspectRatio="none" style="width:947px;height:820px;background:#FFFFFF;" version="1.1" viewBox="0 0 947 820" width="947px" zoomAndPan="magnify"><defs/><g><!--cluster controller--><g id="cluster_controller"><path d="M295,6 L358,6 A3.75,3.75 0 0 1 360.5,8.5 L367.5,28.4063 L938,28.4063 A2.5,2.5 0 0 1 940.5,30.9063 L940.5,589.5 A2.5,2.5 0 0 1 938,592 L295,592 A2.5,2.5 0 0 1 292.5,589.5 L292.5,8.5 A2.5,2.5 0 0 1 295,6 " fill="none" style="stroke:#000000;stroke-width:1.5;"/><line style="stroke:#000000;stroke-width:1.5;" x1="292.5" x2="367.5" y1="28.4063" y2="28.4063"/><text fill="#000000" font-family="sans-serif" font-size="14" font-weight="bold" lengthAdjust="spacing" textLength="62" x="296.5" y="20.9883">controller</text></g><!--cluster cmd--><g id="cluster_cmd"><path d="M569,106.5 L597,106.5 A3.75,3.75 0 0 1 599.5,109 L606.5,128.9063 L914,128.9063 A2.5,2.5 0 0 1 916.5,131.4063 L916.5,565.5 A2.5,2.5 0 0 1 914,568 L569,568 A2.5,2.5 0 0 1 566.5,565.5 L566.5,109 A2.5,2.5 0 0 1 569,106.5 " fill="none" style="stroke:#000000;stroke-width:1.5;"/><line style="stroke:#000000;stroke-width:1.5;" x1="566.5" x2="606.5" y1="128.9063" y2="128.9063"/><text fill="#000000" font-family="sans-serif" font-size="14" font-weight="bold" lengthAdjust="spacing" textLength="27" x="570.5" y="121.4883">cmd</text></g><!--cluster texturing--><g id="cluster_texturing"><path d="M319,49 L378,49 A3.75,3.75 0 0 1 380.5,51.5 L387.5,71.4063 L540,71.4063 A2.5,2.5 0 0 1 542.5,73.9063 L542.5,309.5 A2.5,2.5 0 0 1 540,312 L319,312 A2.5,2.5 0 0 1 316.5,309.5 L316.5,51.5 A2.5,2.5 0 0 1 319,49 " fill="none" style="stroke:#000000;stroke-width:1.5;"/><line style="stroke:#000000;stroke-width:1.5;" x1="316.5" x2="387.5" y1="71.4063" y2="71.4063"/><text fill="#000000" font-family="sans-serif" font-size="14" font-weight="bold" lengthAdjust="spacing" textLength="58" x="320.5" y="63.9883">texturing</text></g><!--cluster LogLevel--><g id="cluster_LogLevel"><path d="M62,616 L122,616 A3.75,3.75 0 0 1 124.5,618.5 L131.5,638.4063 L221,638.4063 A2.5,2.5 0 0 1 223.5,640.9063 L223.5,810.5 A2.5,2.5 0 0 1 221,813 L62,813 A2.5,2.5 0 0 1 59.5,810.5 L59.5,618.5 A2.5,2.5 0 0 1 62,616 " fill="none" style="stroke:#000000;stroke-width:1.5;"/><line style="stroke:#000000;stroke-width:1.5;" x1="59.5" x2="131.5" y1="638.4063" y2="638.4063"/><text fill="#000000" font-family="sans-serif" font-size="14" font-weight="bold" lengthAdjust="spacing" textLength="59" x="63.5" y="630.9883">LogLevel</text></g><!--class API--><g id="elem_API"><rect codeLine="5" fill="#F1F1F1" height="195.6563" id="API" rx="2.5" ry="2.5" style="stroke:#181818;stroke-width:0.5;" width="317" x="583" y="356"/><ellipse cx="726.25" cy="372" fill="#ADD1B2" rx="11" ry="11" style="stroke:#181818;stroke-width:1.0;"/><path d="M726.2969,378.2031 C727.7969,378.2031 729.0313,377.6406 729.9375,376.5781 L728.5625,375.0625 C728.0156,375.6563 727.3594,376.0469 726.5625,376.0469 C724.8906,376.0469 723.7344,374.7188 723.7344,372.4375 C723.7344,370.2188 724.8906,368.875 726.4531,368.875 C727.2656,368.875 727.8594,369.1875 728.3906,369.6719 L729.7656,368.125 C729.0156,367.3906 727.8594,366.7188 726.4531,366.7188 C723.5,366.7188 721.1719,368.8594 721.1719,372.5313 C721.1719,376.25 723.5469,378.2031 726.2969,378.2031 Z " fill="#000000"/><text fill="#000000" font-family="sans-serif" font-size="14" lengthAdjust="spacing" textLength="22" x="746.75" y="376.7852">API</text><line style="stroke:#181818;stroke-width:0.5;" x1="584" x2="899" y1="388" y2="388"/><rect fill="none" height="6" style="stroke:#C82930;stroke-width:1.0;" width="6" x="591" y="398.7031"/><text fill="#000000" font-family="sans-serif" font-size="14" lengthAdjust="spacing" textLength="159" x="603" y="404.9883">config : ApplicationConfig</text><line style="stroke:#181818;stroke-width:0.5;" x1="584" x2="899" y1="412.4063" y2="412.4063"/><ellipse cx="594" cy="426.1094" fill="#84BE84" rx="3" ry="3" style="stroke:#038048;stroke-width:1.0;"/><text fill="#000000" font-family="sans-serif" font-size="14" lengthAdjust="spacing" textLength="134" x="603" y="429.3945">void disableLogging()</text><ellipse cx="594" cy="442.5156" fill="#84BE84" rx="3" ry="3" style="stroke:#038048;stroke-width:1.0;"/><text fill="#000000" font-family="sans-serif" font-size="14" lengthAdjust="spacing" textLength="131" x="603" y="445.8008">void enableLogging()</text><ellipse cx="594" cy="458.9219" fill="#84BE84" rx="3" ry="3" style="stroke:#038048;stroke-width:1.0;"/><text fill="#000000" font-family="sans-serif" font-size="14" lengthAdjust="spacing" textLength="101" x="603" y="462.207">void enableEditor()</text><ellipse cx="594" cy="475.3281" fill="#84BE84" rx="3" ry="3" style="stroke:#038048;stroke-width:1.0;"/><text fill="#000000" font-family="sans-serif" font-size="14" lengthAdjust="spacing" textLength="104" x="603" y="478.6133">void disableEditor()</text><ellipse cx="594" cy="491.7344" fill="#84BE84" rx="3" ry="3" style="stroke:#038048;stroke-width:1.0;"/><text fill="#000000" font-family="sans-serif" font-size="14" lengthAdjust="spacing" textLength="291" x="603" y="495.0195">void bakeTexture(const ENVMAPDATA&amp; , bool)</text><ellipse cx="594" cy="508.1406" fill="#84BE84" rx="3" ry="3" style="stroke:#038048;stroke-width:1.0;"/><text fill="#000000" font-family="sans-serif" font-size="14" lengthAdjust="spacing" textLength="106" x="603" y="511.4258">void enableGpu()</text><ellipse cx="594" cy="524.5469" fill="#84BE84" rx="3" ry="3" style="stroke:#038048;stroke-width:1.0;"/><text fill="#000000" font-family="sans-serif" font-size="14" lengthAdjust="spacing" textLength="98" x="603" y="527.832">void configure()</text><ellipse cx="594" cy="540.9531" fill="#84BE84" rx="3" ry="3" style="stroke:#038048;stroke-width:1.0;"/><text fill="#000000" font-family="sans-serif" font-size="14" lengthAdjust="spacing" textLength="143" x="603" y="544.2383">void configureDefault()</text></g><!--class ProgramOptionManager--><g id="elem_ProgramOptionManager"><rect codeLine="18" fill="#F1F1F1" height="97.2188" id="ProgramOptionManager" rx="2.5" ry="2.5" style="stroke:#181818;stroke-width:0.5;" width="220" x="631.5" y="141.5"/><ellipse cx="662.25" cy="157.5" fill="#ADD1B2" rx="11" ry="11" style="stroke:#181818;stroke-width:1.0;"/><path d="M662.2969,163.7031 C663.7969,163.7031 665.0313,163.1406 665.9375,162.0781 L664.5625,160.5625 C664.0156,161.1563 663.3594,161.5469 662.5625,161.5469 C660.8906,161.5469 659.7344,160.2188 659.7344,157.9375 C659.7344,155.7188 660.8906,154.375 662.4531,154.375 C663.2656,154.375 663.8594,154.6875 664.3906,155.1719 L665.7656,153.625 C665.0156,152.8906 663.8594,152.2188 662.4531,152.2188 C659.5,152.2188 657.1719,154.3594 657.1719,158.0313 C657.1719,161.75 659.5469,163.7031 662.2969,163.7031 Z " fill="#000000"/><text fill="#000000" font-family="sans-serif" font-size="14" lengthAdjust="spacing" textLength="153" x="679.75" y="162.2852">ProgramOptionManager</text><line style="stroke:#181818;stroke-width:0.5;" x1="632.5" x2="850.5" y1="173.5" y2="173.5"/><rect fill="none" height="6" style="stroke:#C82930;stroke-width:1.0;" width="6" x="639.5" y="184.2031"/><text fill="#000000" font-family="sans-serif" font-size="14" lengthAdjust="spacing" textLength="50" x="651.5" y="190.4883">api : API</text><line style="stroke:#181818;stroke-width:0.5;" x1="632.5" x2="850.5" y1="197.9063" y2="197.9063"/><ellipse cx="642.5" cy="211.6094" fill="#84BE84" rx="3" ry="3" style="stroke:#038048;stroke-width:1.0;"/><text fill="#000000" font-family="sans-serif" font-size="14" lengthAdjust="spacing" textLength="183" x="651.5" y="214.8945">bool processArgs(int , char**)</text><ellipse cx="642.5" cy="228.0156" fill="#84BE84" rx="3" ry="3" style="stroke:#038048;stroke-width:1.0;"/><text fill="#000000" font-family="sans-serif" font-size="14" lengthAdjust="spacing" textLength="194" x="651.5" y="231.3008">ApplicationConfig&amp; getConfig()</text></g><!--class ENVMAPDATA--><g id="elem_ENVMAPDATA"><rect codeLine="26" fill="#F1F1F1" height="212.0625" id="ENVMAPDATA" rx="2.5" ry="2.5" style="stroke:#181818;stroke-width:0.5;" width="194" x="332.5" y="84"/><ellipse cx="379.25" cy="100" fill="#F1F1F1" rx="11" ry="11" style="stroke:#181818;stroke-width:1.0;"/><path d="M379.3125,106.4531 C382.0625,106.4531 383.6094,104.8594 383.6094,103.0156 C383.6094,101.4531 382.7031,100.5625 381.2344,100.0156 L379.8906,99.4375 C378.8281,99.0469 378.0781,98.7813 378.0781,98.125 C378.0781,97.4844 378.6406,97.125 379.4688,97.125 C380.5625,97.125 381.25,97.4375 382.0156,98 L383.2969,96.4219 C382.2969,95.4688 380.9531,94.9688 379.6094,94.9688 C377.2031,94.9688 375.5469,96.4219 375.5469,98.2656 C375.5469,99.875 376.6563,100.8281 377.9063,101.2813 L379.3281,101.8906 C380.3906,102.3438 381.0469,102.5469 381.0469,103.3281 C381.0469,103.8906 380.5625,104.2969 379.4844,104.2969 C378.4219,104.2969 377.375,103.8125 376.5469,103.1406 L375.0938,104.8594 C376.2969,105.9063 377.8125,106.4531 379.3125,106.4531 Z " fill="#000000"/><text fill="#000000" font-family="sans-serif" font-size="14" lengthAdjust="spacing" textLength="92" x="399.75" y="104.7852">ENVMAPDATA</text><line style="stroke:#181818;stroke-width:0.5;" x1="333.5" x2="525.5" y1="116" y2="116"/><ellipse cx="343.5" cy="129.7031" fill="none" rx="3" ry="3" style="stroke:#038048;stroke-width:1.0;"/><text fill="#000000" font-family="sans-serif" font-size="14" lengthAdjust="spacing" textLength="112" x="352.5" y="132.9883">path_input : string</text><ellipse cx="343.5" cy="146.1094" fill="none" rx="3" ry="3" style="stroke:#038048;stroke-width:1.0;"/><text fill="#000000" font-family="sans-serif" font-size="14" lengthAdjust="spacing" textLength="122" x="352.5" y="149.3945">path_output : string</text><ellipse cx="343.5" cy="162.5156" fill="none" rx="3" ry="3" style="stroke:#038048;stroke-width:1.0;"/><text fill="#000000" font-family="sans-serif" font-size="14" lengthAdjust="spacing" textLength="116" x="352.5" y="165.8008">width_output : uint</text><ellipse cx="343.5" cy="178.9219" fill="none" rx="3" ry="3" style="stroke:#038048;stroke-width:1.0;"/><text fill="#000000" font-family="sans-serif" font-size="14" lengthAdjust="spacing" textLength="120" x="352.5" y="182.207">height_output : uint</text><ellipse cx="343.5" cy="195.3281" fill="none" rx="3" ry="3" style="stroke:#038048;stroke-width:1.0;"/><text fill="#000000" font-family="sans-serif" font-size="14" lengthAdjust="spacing" textLength="89" x="352.5" y="198.6133">channels : uint</text><ellipse cx="343.5" cy="211.7344" fill="none" rx="3" ry="3" style="stroke:#038048;stroke-width:1.0;"/><text fill="#000000" font-family="sans-serif" font-size="14" lengthAdjust="spacing" textLength="85" x="352.5" y="215.0195">samples : uint</text><ellipse cx="343.5" cy="228.1406" fill="none" rx="3" ry="3" style="stroke:#038048;stroke-width:1.0;"/><text fill="#000000" font-family="sans-serif" font-size="14" lengthAdjust="spacing" textLength="106" x="352.5" y="231.4258">width_input : uint</text><ellipse cx="343.5" cy="244.5469" fill="none" rx="3" ry="3" style="stroke:#038048;stroke-width:1.0;"/><text fill="#000000" font-family="sans-serif" font-size="14" lengthAdjust="spacing" textLength="110" x="352.5" y="247.832">height_input : uint</text><ellipse cx="343.5" cy="260.9531" fill="none" rx="3" ry="3" style="stroke:#038048;stroke-width:1.0;"/><text fill="#000000" font-family="sans-serif" font-size="14" lengthAdjust="spacing" textLength="158" x="352.5" y="264.2383">data_input : vector&lt;float&gt;</text><ellipse cx="343.5" cy="277.3594" fill="none" rx="3" ry="3" style="stroke:#038048;stroke-width:1.0;"/><text fill="#000000" font-family="sans-serif" font-size="14" lengthAdjust="spacing" textLength="168" x="352.5" y="280.6445">data_output : vector&lt;float&gt;</text><line style="stroke:#181818;stroke-width:0.5;" x1="333.5" x2="525.5" y1="288.0625" y2="288.0625"/></g><!--class LOGENUMTYPE--><g id="elem_LOGENUMTYPE"><rect codeLine="42" fill="#F1F1F1" height="146.4375" id="LOGENUMTYPE" rx="2.5" ry="2.5" style="stroke:#181818;stroke-width:0.5;" width="132" x="75.5" y="651"/><ellipse cx="90.5" cy="667" fill="#EB937F" rx="11" ry="11" style="stroke:#181818;stroke-width:1.0;"/><path d="M86.5625,673 L94.0781,673 L94.0781,670.8906 L89.0781,670.8906 L89.0781,668.3438 L93.1719,668.3438 L93.1719,666.25 L89.0781,666.25 L89.0781,664.0313 L93.9063,664.0313 L93.9063,661.9219 L86.5625,661.9219 L86.5625,673 Z " fill="#000000"/><text fill="#000000" font-family="sans-serif" font-size="14" lengthAdjust="spacing" textLength="100" x="104.5" y="671.7852">LOGENUMTYPE</text><line style="stroke:#181818;stroke-width:0.5;" x1="76.5" x2="206.5" y1="683" y2="683"/><text fill="#000000" font-family="sans-serif" font-size="14" lengthAdjust="spacing" textLength="32" x="81.5" y="699.9883">INFO</text><text fill="#000000" font-family="sans-serif" font-size="14" lengthAdjust="spacing" textLength="50" x="81.5" y="716.3945">GLINFO</text><text fill="#000000" font-family="sans-serif" font-size="14" lengthAdjust="spacing" textLength="64" x="81.5" y="732.8008">WARNING</text><text fill="#000000" font-family="sans-serif" font-size="14" lengthAdjust="spacing" textLength="45" x="81.5" y="749.207">ERROR</text><text fill="#000000" font-family="sans-serif" font-size="14" lengthAdjust="spacing" textLength="60" x="81.5" y="765.6133">CRITICAL</text><text fill="#000000" font-family="sans-serif" font-size="14" lengthAdjust="spacing" textLength="45" x="81.5" y="782.0195">DEBUG</text><line style="stroke:#181818;stroke-width:0.5;" x1="76.5" x2="206.5" y1="789.4375" y2="789.4375"/></g><!--class ApplicationConfig--><g id="elem_ApplicationConfig"><rect codeLine="53" fill="#F1F1F1" height="146.4375" id="ApplicationConfig" rx="2.5" ry="2.5" style="stroke:#181818;stroke-width:0.5;" width="261" x="13" y="117"/><ellipse cx="83.75" cy="133" fill="#ADD1B2" rx="11" ry="11" style="stroke:#181818;stroke-width:1.0;"/><path d="M83.7969,139.2031 C85.2969,139.2031 86.5313,138.6406 87.4375,137.5781 L86.0625,136.0625 C85.5156,136.6563 84.8594,137.0469 84.0625,137.0469 C82.3906,137.0469 81.2344,135.7188 81.2344,133.4375 C81.2344,131.2188 82.3906,129.875 83.9531,129.875 C84.7656,129.875 85.3594,130.1875 85.8906,130.6719 L87.2656,129.125 C86.5156,128.3906 85.3594,127.7188 83.9531,127.7188 C81,127.7188 78.6719,129.8594 78.6719,133.5313 C78.6719,137.25 81.0469,139.2031 83.7969,139.2031 Z " fill="#000000"/><text fill="#000000" font-family="sans-serif" font-size="14" lengthAdjust="spacing" textLength="111" x="104.25" y="137.7852">ApplicationConfig</text><line style="stroke:#181818;stroke-width:0.5;" x1="14" x2="273" y1="149" y2="149"/><rect fill="none" height="6" style="stroke:#C82930;stroke-width:1.0;" width="6" x="21" y="159.7031"/><text fill="#000000" font-family="sans-serif" font-size="14" lengthAdjust="spacing" textLength="235" x="33" y="165.9883">logger_conf : LoggerConfigDataStruct</text><rect fill="none" height="6" style="stroke:#C82930;stroke-width:1.0;" width="6" x="21" y="176.1094"/><text fill="#000000" font-family="sans-serif" font-size="14" lengthAdjust="spacing" textLength="116" x="33" y="182.3945">is_config_init : bool</text><rect fill="none" height="6" style="stroke:#C82930;stroke-width:1.0;" width="6" x="21" y="192.5156"/><text fill="#000000" font-family="sans-serif" font-size="14" lengthAdjust="spacing" textLength="103" x="33" y="198.8008">launch_gui : bool</text><line style="stroke:#181818;stroke-width:0.5;" x1="14" x2="273" y1="206.2188" y2="206.2188"/><ellipse cx="24" cy="219.9219" fill="#84BE84" rx="3" ry="3" style="stroke:#038048;stroke-width:1.0;"/><text fill="#000000" font-family="sans-serif" font-size="14" lengthAdjust="spacing" textLength="114" x="33" y="223.207">bool getGuiState()</text><ellipse cx="24" cy="236.3281" fill="#84BE84" rx="3" ry="3" style="stroke:#038048;stroke-width:1.0;"/><text fill="#000000" font-family="sans-serif" font-size="14" lengthAdjust="spacing" textLength="158" x="33" y="239.6133">void loggerSetState(bool)</text><ellipse cx="24" cy="252.7344" fill="#84BE84" rx="3" ry="3" style="stroke:#038048;stroke-width:1.0;"/><text fill="#000000" font-family="sans-serif" font-size="14" lengthAdjust="spacing" textLength="168" x="33" y="256.0195">void setEditorLaunched(bool)</text></g><!--class LoggerConfigDataStruct--><g id="elem_LoggerConfigDataStruct"><rect codeLine="63" fill="#F1F1F1" height="113.625" id="LoggerConfigDataStruct" rx="2.5" ry="2.5" style="stroke:#181818;stroke-width:0.5;" width="269" x="7" y="397"/><ellipse cx="60.75" cy="413" fill="#F1F1F1" rx="11" ry="11" style="stroke:#181818;stroke-width:1.0;"/><path d="M60.8125,419.4531 C63.5625,419.4531 65.1094,417.8594 65.1094,416.0156 C65.1094,414.4531 64.2031,413.5625 62.7344,413.0156 L61.3906,412.4375 C60.3281,412.0469 59.5781,411.7813 59.5781,411.125 C59.5781,410.4844 60.1406,410.125 60.9688,410.125 C62.0625,410.125 62.75,410.4375 63.5156,411 L64.7969,409.4219 C63.7969,408.4688 62.4531,407.9688 61.1094,407.9688 C58.7031,407.9688 57.0469,409.4219 57.0469,411.2656 C57.0469,412.875 58.1563,413.8281 59.4063,414.2813 L60.8281,414.8906 C61.8906,415.3438 62.5469,415.5469 62.5469,416.3281 C62.5469,416.8906 62.0625,417.2969 60.9844,417.2969 C59.9219,417.2969 58.875,416.8125 58.0469,416.1406 L56.5938,417.8594 C57.7969,418.9063 59.3125,419.4531 60.8125,419.4531 Z " fill="#000000"/><text fill="#000000" font-family="sans-serif" font-size="14" lengthAdjust="spacing" textLength="153" x="81.25" y="417.7852">LoggerConfigDataStruct</text><line style="stroke:#181818;stroke-width:0.5;" x1="8" x2="275" y1="429" y2="429"/><ellipse cx="18" cy="442.7031" fill="none" rx="3" ry="3" style="stroke:#038048;stroke-width:1.0;"/><text fill="#000000" font-family="sans-serif" font-size="14" lengthAdjust="spacing" textLength="161" x="27" y="445.9883">log_level : LOGENUMTYPE</text><ellipse cx="18" cy="459.1094" fill="none" rx="3" ry="3" style="stroke:#038048;stroke-width:1.0;"/><text fill="#000000" font-family="sans-serif" font-size="14" lengthAdjust="spacing" textLength="243" x="27" y="462.3945">write_destination:shared_ptr&lt;ostream&gt;</text><ellipse cx="18" cy="475.5156" fill="none" rx="3" ry="3" style="stroke:#038048;stroke-width:1.0;"/><text fill="#000000" font-family="sans-serif" font-size="14" lengthAdjust="spacing" textLength="99" x="27" y="478.8008">log_filters:string</text><ellipse cx="18" cy="491.9219" fill="none" rx="3" ry="3" style="stroke:#038048;stroke-width:1.0;"/><text fill="#000000" font-family="sans-serif" font-size="14" lengthAdjust="spacing" textLength="129" x="27" y="495.207">enable_logging : bool</text><line style="stroke:#181818;stroke-width:0.5;" x1="8" x2="275" y1="502.625" y2="502.625"/></g><!--reverse link ProgramOptionManager to API--><g id="link_ProgramOptionManager_API"><path codeLine="70" d="M741.5,250.75 C741.5,283.44 741.5,315.95 741.5,355.92 " fill="none" id="ProgramOptionManager-backto-API" style="stroke:#181818;stroke-width:1.0;"/><polygon fill="none" points="741.5,238.75,737.5,244.75,741.5,250.75,745.5,244.75,741.5,238.75" style="stroke:#181818;stroke-width:1.0;"/></g><!--link ApplicationConfig to API--><g id="link_ApplicationConfig_API"><path codeLine="71" d="M228.17,263.03 C255.16,283.49 285.97,304.41 316.5,320 C400.42,362.84 489.1678,391.9383 571.2778,413.9083 " fill="none" id="ApplicationConfig-to-API" style="stroke:#181818;stroke-width:1.0;"/><polygon fill="none" points="582.87,417.01,578.1078,411.5951,571.2778,413.9083,576.04,419.3232,582.87,417.01" style="stroke:#181818;stroke-width:1.0;"/></g><!--reverse link LoggerConfigDataStruct to LOGENUMTYPE--><g id="link_LoggerConfigDataStruct_LOGENUMTYPE"><path codeLine="72" d="M141.5,523.18 C141.5,563.7 141.5,606.75 141.5,650.57 " fill="none" id="LoggerConfigDataStruct-backto-LOGENUMTYPE" style="stroke:#181818;stroke-width:1.0;"/><polygon fill="none" points="141.5,511.18,137.5,517.18,141.5,523.18,145.5,517.18,141.5,511.18" style="stroke:#181818;stroke-width:1.0;"/></g><!--reverse link ApplicationConfig to LoggerConfigDataStruct--><g id="link_ApplicationConfig_LoggerConfigDataStruct"><path codeLine="73" d="M142.8588,275.2897 C142.5388,317.3897 142.23,357.71 141.93,396.73 " fill="none" id="ApplicationConfig-backto-LoggerConfigDataStruct" style="stroke:#181818;stroke-width:1.0;"/><polygon fill="none" points="142.95,263.29,138.9045,269.2594,142.8588,275.2897,146.9043,269.3202,142.95,263.29" style="stroke:#181818;stroke-width:1.0;"/></g><!--SRC=[ZLJ1Rjim3BtxAtJgkdPUxq5Hm6ko882R14cwOIT3jHbRc2m94jqEAFBlaop7rXAdc4-MtXFv-2ZgKuMepEJkJd4giAdvrrpMTpcdniG5ewMcTHG9MeDHD0UIIu5QSWxwFTojY_U8sAyzHvBrmY_T5xipUrQI2KcKuYodoAHuRFTwqYrvbQmW1JFqXKCgovA9ylhpAGxYF-1vmywXBl8eza9_mmx-OAFXscerI6RB7q_9UfhiaYloXRn8oI_bKirvF5-lYtOPciAUDXmxnY6A0llMMZhRLyePzKG5BPtRWvzKCMVcUX54Tng9qZ87On9Tccicq4hFAwflRa8PPpsu8YMW_-tL7BoSeS7OscDD7tGOr4qUMZL0FfEYM6LCg0QjMiksfySOii4FA6-i23cDBUk4KG4hA_oGObqG0hWPHmsj5OSBeCz_hE9o-WyO1KNQuw-GezJtUoufFemH-ph6cOUXGqDtx42ay0hSTm14KvDqDPyjdvzslzQpeI-BvVTLlvYd_on_9flbOZdlrxFDPhNfLu-RnMxncAJzndJsxNa-Q8cwmJ-zN3vtJBWTMT2Pk_wsjBHTUSRK5hrjhr8Kt6Hx9UseRf7YSOYw0VA1je0U6qQpmqrxCAMDo2ie0Zmcp6H-_6mpc7FOWKTzxO6iRDXntnNLNV5nkUzTMgieuyvzLzZWUeU-QOQG5M2GYTQNYR4Z2KMcKDzBcm1e_H14sZEEeCqa68RRxgt9k7_t0eLZBmMHSTm-3cVD874iMsIyeFPWMC5vW9Ontho_]--></g></svg>