<?xml version="1.0" encoding="us-ascii" standalone="no"?><svg xmlns="http://www.w3.org/2000/svg" xmlns:xlink="http://www.w3.org/1999/xlink" contentStyleType="text/css" height="501.2px" preserveAspectRatio="none" style="width:750px;height:501px;background:#FFFFFF;" version="1.1" viewBox="0 0 750 501" width="750px" zoomAndPan="magnify"><defs/><g><!--cluster image--><g id="cluster_image"><path d="M333.4,2.4 L349.8,2.4 A1.5,1.5 0 0 1 350.8,3.4 L353.6,11.3625 L471,11.3625 A1,1 0 0 1 472,12.3625 L472,41 A1,1 0 0 1 471,42 L333.4,42 A1,1 0 0 1 332.4,41 L332.4,3.4 A1,1 0 0 1 333.4,2.4 " fill="none" style="stroke:#000000;stroke-width:0.6000000000000001;"/><line style="stroke:#000000;stroke-width:0.6000000000000001;" x1="332.4" x2="353.6" y1="11.3625" y2="11.3625"/><text fill="#000000" font-family="sans-serif" font-size="5.6" font-weight="bold" lengthAdjust="spacing" textLength="16" x="334" y="8.3953">image</text></g><!--cluster observer--><g id="cluster_observer"><path d="M567.4,2.4 L590.2,2.4 A1.5,1.5 0 0 1 591.2,3.4 L594,11.3625 L603,11.3625 A1,1 0 0 1 604,12.3625 L604,41 A1,1 0 0 1 603,42 L567.4,42 A1,1 0 0 1 566.4,41 L566.4,3.4 A1,1 0 0 1 567.4,2.4 " fill="none" style="stroke:#000000;stroke-width:0.6000000000000001;"/><line style="stroke:#000000;stroke-width:0.6000000000000001;" x1="566.4" x2="594" y1="11.3625" y2="11.3625"/><text fill="#000000" font-family="sans-serif" font-size="5.6" font-weight="bold" lengthAdjust="spacing" textLength="22.4" x="568" y="8.3953">observer</text></g><!--cluster database--><g id="cluster_database"><path d="M3.4,55.2 L27.8,55.2 A1.5,1.5 0 0 1 28.8,56.2 L31.6,64.1625 L615.8,64.1625 A1,1 0 0 1 616.8,65.1625 L616.8,453 A1,1 0 0 1 615.8,454 L3.4,454 A1,1 0 0 1 2.4,453 L2.4,56.2 A1,1 0 0 1 3.4,55.2 " fill="none" style="stroke:#000000;stroke-width:0.6000000000000001;"/><line style="stroke:#000000;stroke-width:0.6000000000000001;" x1="2.4" x2="31.6" y1="64.1625" y2="64.1625"/><text fill="#000000" font-family="sans-serif" font-size="5.6" font-weight="bold" lengthAdjust="spacing" textLength="24" x="4" y="61.1953">database</text></g><!--class ThumbnailImageHolder--><g id="elem_ThumbnailImageHolder"><rect codeLine="10" fill="#F1F1F1" height="19.2" id="ThumbnailImageHolder" rx="1" ry="1" style="stroke:#181818;stroke-width:0.20000000000000004;" width="75.6" x="389.8" y="16.4"/><ellipse cx="395.8" cy="22.8" fill="#ADD1B2" rx="4.4" ry="4.4" style="stroke:#181818;stroke-width:0.4000000000000001;"/><path d="M395.8188,25.2813 C396.4188,25.2813 396.9125,25.0563 397.275,24.6313 L396.725,24.025 C396.5063,24.2625 396.2438,24.4188 395.925,24.4188 C395.2563,24.4188 394.7938,23.8875 394.7938,22.975 C394.7938,22.0875 395.2563,21.55 395.8813,21.55 C396.2063,21.55 396.4438,21.675 396.6563,21.8688 L397.2063,21.25 C396.9063,20.9563 396.4438,20.6875 395.8813,20.6875 C394.7,20.6875 393.7688,21.5438 393.7688,23.0125 C393.7688,24.5 394.7188,25.2813 395.8188,25.2813 Z " fill="#000000"/><text fill="#000000" font-family="sans-serif" font-size="5.6" lengthAdjust="spacing" textLength="58.4" x="401.4" y="24.7141">ThumbnailImageHolder</text><rect fill="#FFFFFF" height="6.425" style="stroke:#181818;stroke-width:0.4000000000000001;stroke-dasharray:2.0,2.0;" width="3.6" x="463" y="15.2"/><text fill="#000000" font-family="sans-serif" font-size="4.8" font-style="italic" lengthAdjust="spacing" textLength="2.8" x="463.4" y="20.0531">T</text><line style="stroke:#181818;stroke-width:0.20000000000000004;" x1="390.2" x2="465" y1="29.2" y2="29.2"/><line style="stroke:#181818;stroke-width:0.20000000000000004;" x1="390.2" x2="465" y1="32.4" y2="32.4"/></g><!--class Metadata--><g id="elem_Metadata"><rect codeLine="11" fill="#F1F1F1" height="19.2" id="Metadata" rx="1" ry="1" style="stroke:#181818;stroke-width:0.20000000000000004;" width="37.2" x="338.6" y="16.4"/><ellipse cx="344.6" cy="22.8" fill="#ADD1B2" rx="4.4" ry="4.4" style="stroke:#181818;stroke-width:0.4000000000000001;"/><path d="M344.6188,25.2813 C345.2188,25.2813 345.7125,25.0563 346.075,24.6313 L345.525,24.025 C345.3063,24.2625 345.0438,24.4188 344.725,24.4188 C344.0563,24.4188 343.5938,23.8875 343.5938,22.975 C343.5938,22.0875 344.0563,21.55 344.6813,21.55 C345.0063,21.55 345.2438,21.675 345.4563,21.8688 L346.0063,21.25 C345.7063,20.9563 345.2438,20.6875 344.6813,20.6875 C343.5,20.6875 342.5688,21.5438 342.5688,23.0125 C342.5688,24.5 343.5188,25.2813 344.6188,25.2813 Z " fill="#000000"/><text fill="#000000" font-family="sans-serif" font-size="5.6" lengthAdjust="spacing" textLength="24.4" x="350.2" y="24.7141">Metadata</text><line style="stroke:#181818;stroke-width:0.20000000000000004;" x1="339" x2="375.4" y1="29.2" y2="29.2"/><line style="stroke:#181818;stroke-width:0.20000000000000004;" x1="339" x2="375.4" y1="32.4" y2="32.4"/></g><!--class Data--><g id="elem_Data"><rect codeLine="16" fill="#F1F1F1" height="19.2" id="Data" rx="1" ry="1" style="stroke:#181818;stroke-width:0.20000000000000004;" width="24.8" x="572.8" y="16.4"/><ellipse cx="578.8" cy="22.8" fill="#ADD1B2" rx="4.4" ry="4.4" style="stroke:#181818;stroke-width:0.4000000000000001;"/><path d="M578.8188,25.2813 C579.4188,25.2813 579.9125,25.0563 580.275,24.6313 L579.725,24.025 C579.5063,24.2625 579.2438,24.4188 578.925,24.4188 C578.2563,24.4188 577.7938,23.8875 577.7938,22.975 C577.7938,22.0875 578.2563,21.55 578.8813,21.55 C579.2063,21.55 579.4438,21.675 579.6563,21.8688 L580.2063,21.25 C579.9063,20.9563 579.4438,20.6875 578.8813,20.6875 C577.7,20.6875 576.7688,21.5438 576.7688,23.0125 C576.7688,24.5 577.7188,25.2813 578.8188,25.2813 Z " fill="#000000"/><text fill="#000000" font-family="sans-serif" font-size="5.6" lengthAdjust="spacing" textLength="12" x="584.4" y="24.7141">Data</text><line style="stroke:#181818;stroke-width:0.20000000000000004;" x1="573.2" x2="597.2" y1="29.2" y2="29.2"/><line style="stroke:#181818;stroke-width:0.20000000000000004;" x1="573.2" x2="597.2" y1="32.4" y2="32.4"/></g><!--class Storage--><g id="elem_Storage"><rect codeLine="22" fill="#F1F1F1" height="91.3875" id="Storage" rx="1" ry="1" style="stroke:#181818;stroke-width:0.20000000000000004;" width="73.2" x="527" y="87.2"/><ellipse cx="546.7" cy="93.6" fill="#ADD1B2" rx="4.4" ry="4.4" style="stroke:#181818;stroke-width:0.4000000000000001;"/><path d="M546.7188,96.0813 C547.3188,96.0813 547.8125,95.8563 548.175,95.4313 L547.625,94.825 C547.4063,95.0625 547.1438,95.2188 546.825,95.2188 C546.1563,95.2188 545.6938,94.6875 545.6938,93.775 C545.6938,92.8875 546.1563,92.35 546.7813,92.35 C547.1063,92.35 547.3438,92.475 547.5563,92.6688 L548.1063,92.05 C547.8063,91.7563 547.3438,91.4875 546.7813,91.4875 C545.6,91.4875 544.6688,92.3438 544.6688,93.8125 C544.6688,95.3 545.6188,96.0813 546.7188,96.0813 Z " fill="#000000"/><text fill="#000000" font-family="sans-serif" font-size="5.6" lengthAdjust="spacing" textLength="19.6" x="554.9" y="95.5141">Storage</text><rect fill="#FFFFFF" height="6.425" style="stroke:#181818;stroke-width:0.4000000000000001;stroke-dasharray:2.0,2.0;" width="10" x="591.4" y="86"/><text fill="#000000" font-family="sans-serif" font-size="4.8" font-style="italic" lengthAdjust="spacing" textLength="9.2" x="591.8" y="90.8531">U , T</text><line style="stroke:#181818;stroke-width:0.20000000000000004;" x1="527.4" x2="599.8" y1="100" y2="100"/><rect fill="none" height="2.4" style="stroke:#C82930;stroke-width:0.4000000000000001;" width="2.4" x="530.2" y="104.2813"/><text fill="#000000" font-family="sans-serif" font-size="5.6" lengthAdjust="spacing" textLength="54" x="535" y="106.7953">object : unique_ptr&lt;T&gt;</text><rect fill="none" height="2.4" style="stroke:#C82930;stroke-width:0.4000000000000001;" width="2.4" x="530.2" y="110.8438"/><text fill="#000000" font-family="sans-serif" font-size="5.6" lengthAdjust="spacing" textLength="11.6" x="535" y="113.3578">id : U</text><rect fill="none" height="2.4" style="stroke:#C82930;stroke-width:0.4000000000000001;" width="2.4" x="530.2" y="117.4063"/><text fill="#000000" font-family="sans-serif" font-size="5.6" lengthAdjust="spacing" textLength="39.2" x="535" y="119.9203">persistent : bool</text><rect fill="none" height="2.4" style="stroke:#C82930;stroke-width:0.4000000000000001;" width="2.4" x="530.2" y="123.9688"/><text fill="#000000" font-family="sans-serif" font-size="5.6" lengthAdjust="spacing" textLength="26" x="535" y="126.4828">valid : bool</text><line style="stroke:#181818;stroke-width:0.20000000000000004;" x1="527.4" x2="599.8" y1="129.45" y2="129.45"/><ellipse cx="531.4" cy="134.9313" fill="#84BE84" rx="1.2" ry="1.2" style="stroke:#038048;stroke-width:0.4000000000000001;"/><text fill="#000000" font-family="sans-serif" font-size="5.6" lengthAdjust="spacing" textLength="34" x="535" y="136.2453">T* get() const</text><ellipse cx="531.4" cy="141.4938" fill="#84BE84" rx="1.2" ry="1.2" style="stroke:#038048;stroke-width:0.4000000000000001;"/><text fill="#000000" font-family="sans-serif" font-size="5.6" lengthAdjust="spacing" textLength="37.2" x="535" y="142.8078">void setId(U id)</text><ellipse cx="531.4" cy="148.0563" fill="#84BE84" rx="1.2" ry="1.2" style="stroke:#038048;stroke-width:0.4000000000000001;"/><text fill="#000000" font-family="sans-serif" font-size="5.6" lengthAdjust="spacing" textLength="36.8" x="535" y="149.3703">U getId() const</text><ellipse cx="531.4" cy="154.6188" fill="#84BE84" rx="1.2" ry="1.2" style="stroke:#038048;stroke-width:0.4000000000000001;"/><text fill="#000000" font-family="sans-serif" font-size="5.6" lengthAdjust="spacing" textLength="60.4" x="535" y="155.9328">bool isPersistent() const</text><ellipse cx="531.4" cy="161.1813" fill="#84BE84" rx="1.2" ry="1.2" style="stroke:#038048;stroke-width:0.4000000000000001;"/><text fill="#000000" font-family="sans-serif" font-size="5.6" lengthAdjust="spacing" textLength="47.6" x="535" y="162.4953">bool isValid() const</text><ellipse cx="531.4" cy="167.7438" fill="#84BE84" rx="1.2" ry="1.2" style="stroke:#038048;stroke-width:0.4000000000000001;"/><text fill="#000000" font-family="sans-serif" font-size="5.6" lengthAdjust="spacing" textLength="62.8" x="535" y="169.0578">void setPersistence(bool)</text><ellipse cx="531.4" cy="174.3063" fill="#84BE84" rx="1.2" ry="1.2" style="stroke:#038048;stroke-width:0.4000000000000001;"/><text fill="#000000" font-family="sans-serif" font-size="5.6" lengthAdjust="spacing" textLength="52.8" x="535" y="175.6203">bool setValidity(bool)</text></g><!--class Result--><g id="elem_Result"><rect codeLine="36" fill="#F1F1F1" height="32.325" id="Result" rx="1" ry="1" style="stroke:#181818;stroke-width:0.20000000000000004;" width="39.2" x="434.4" y="116.6"/><ellipse cx="440.4" cy="123" fill="#ADD1B2" rx="4.4" ry="4.4" style="stroke:#181818;stroke-width:0.4000000000000001;"/><path d="M440.4188,125.4813 C441.0188,125.4813 441.5125,125.2563 441.875,124.8313 L441.325,124.225 C441.1063,124.4625 440.8438,124.6188 440.525,124.6188 C439.8563,124.6188 439.3938,124.0875 439.3938,123.175 C439.3938,122.2875 439.8563,121.75 440.4813,121.75 C440.8063,121.75 441.0438,121.875 441.2563,122.0688 L441.8063,121.45 C441.5063,121.1563 441.0438,120.8875 440.4813,120.8875 C439.3,120.8875 438.3688,121.7438 438.3688,123.2125 C438.3688,124.7 439.3188,125.4813 440.4188,125.4813 Z " fill="#000000"/><text fill="#000000" font-family="sans-serif" font-size="5.6" lengthAdjust="spacing" textLength="15.6" x="446" y="124.9141">Result</text><rect fill="#FFFFFF" height="6.425" style="stroke:#181818;stroke-width:0.4000000000000001;stroke-dasharray:2.0,2.0;" width="10" x="464.8" y="115.4"/><text fill="#000000" font-family="sans-serif" font-size="4.8" font-style="italic" lengthAdjust="spacing" textLength="9.2" x="465.2" y="120.2531">U , T</text><line style="stroke:#181818;stroke-width:0.20000000000000004;" x1="434.8" x2="473.2" y1="129.4" y2="129.4"/><ellipse cx="438.8" cy="134.8813" fill="none" rx="1.2" ry="1.2" style="stroke:#038048;stroke-width:0.4000000000000001;"/><text fill="#000000" font-family="sans-serif" font-size="5.6" lengthAdjust="spacing" textLength="11.6" x="442.4" y="136.1953">id : U</text><ellipse cx="438.8" cy="141.4438" fill="none" rx="1.2" ry="1.2" style="stroke:#038048;stroke-width:0.4000000000000001;"/><text fill="#000000" font-family="sans-serif" font-size="5.6" lengthAdjust="spacing" textLength="24.4" x="442.4" y="142.7578">object : T*</text><line style="stroke:#181818;stroke-width:0.20000000000000004;" x1="434.8" x2="473.2" y1="145.725" y2="145.725"/></g><!--class IResourceDB--><g id="elem_IResourceDB"><rect codeLine="41" fill="#F1F1F1" height="111.075" id="IResourceDB" rx="1" ry="1" style="stroke:#181818;stroke-width:0.20000000000000004;" width="139.6" x="194.2" y="77.2"/><ellipse cx="241.5" cy="83.6" fill="#B4A7E5" rx="4.4" ry="4.4" style="stroke:#181818;stroke-width:0.4000000000000001;"/><path d="M240.0063,86 L243.075,86 L243.075,85.1563 L242.0438,85.1563 L242.0438,82.4125 L243.075,82.4125 L243.075,81.5688 L240.0063,81.5688 L240.0063,82.4125 L241.0375,82.4125 L241.0375,85.1563 L240.0063,85.1563 L240.0063,86 Z " fill="#000000"/><text fill="#000000" font-family="sans-serif" font-size="5.6" font-style="italic" lengthAdjust="spacing" textLength="30.8" x="249.7" y="85.5141">IResourceDB</text><rect fill="#FFFFFF" height="6.425" style="stroke:#181818;stroke-width:0.4000000000000001;stroke-dasharray:2.0,2.0;" width="10" x="325" y="76"/><text fill="#000000" font-family="sans-serif" font-size="4.8" font-style="italic" lengthAdjust="spacing" textLength="9.2" x="325.4" y="80.8531">U , T</text><line style="stroke:#181818;stroke-width:0.20000000000000004;" x1="194.6" x2="333.4" y1="90" y2="90"/><rect fill="none" height="2.4" style="stroke:#C82930;stroke-width:0.4000000000000001;" width="2.4" x="197.4" y="94.2813"/><text fill="#000000" font-family="sans-serif" font-size="5.6" lengthAdjust="spacing" textLength="100.4" x="202.2" y="96.7953">database_map : map&lt;U , Storage&lt;U , T&gt;&gt;</text><line style="stroke:#181818;stroke-width:0.20000000000000004;" x1="194.6" x2="333.4" y1="99.7625" y2="99.7625"/><ellipse cx="198.6" cy="105.2438" fill="#84BE84" rx="1.2" ry="1.2" style="stroke:#038048;stroke-width:0.4000000000000001;"/><text fill="#000000" font-family="sans-serif" font-size="5.6" font-style="italic" lengthAdjust="spacing" textLength="28.4" x="202.2" y="106.5578">void clean()</text><ellipse cx="198.6" cy="111.8063" fill="#84BE84" rx="1.2" ry="1.2" style="stroke:#038048;stroke-width:0.4000000000000001;"/><text fill="#000000" font-family="sans-serif" font-size="5.6" font-style="italic" lengthAdjust="spacing" textLength="29.6" x="202.2" y="113.1203">void purge()</text><ellipse cx="198.6" cy="118.3688" fill="#84BE84" rx="1.2" ry="1.2" style="stroke:#038048;stroke-width:0.4000000000000001;"/><text fill="#000000" font-family="sans-serif" font-size="5.6" font-style="italic" lengthAdjust="spacing" textLength="51.6" x="202.2" y="119.6828">T* get(const U) const</text><ellipse cx="198.6" cy="124.9313" fill="#84BE84" rx="1.2" ry="1.2" style="stroke:#038048;stroke-width:0.4000000000000001;"/><text fill="#000000" font-family="sans-serif" font-size="5.6" font-style="italic" lengthAdjust="spacing" textLength="52.8" x="202.2" y="126.2453">bool remove(const U)</text><ellipse cx="198.6" cy="131.4938" fill="#84BE84" rx="1.2" ry="1.2" style="stroke:#038048;stroke-width:0.4000000000000001;"/><text fill="#000000" font-family="sans-serif" font-size="5.6" font-style="italic" lengthAdjust="spacing" textLength="54.8" x="202.2" y="132.8078">bool remove(const T*)</text><ellipse cx="198.6" cy="138.0563" fill="#84BE84" rx="1.2" ry="1.2" style="stroke:#038048;stroke-width:0.4000000000000001;"/><text fill="#000000" font-family="sans-serif" font-size="5.6" font-style="italic" lengthAdjust="spacing" textLength="48.8" x="202.2" y="139.3703">U firstFreeId() const</text><ellipse cx="198.6" cy="144.6188" fill="#84BE84" rx="1.2" ry="1.2" style="stroke:#038048;stroke-width:0.4000000000000001;"/><text fill="#000000" font-family="sans-serif" font-size="5.6" font-style="italic" lengthAdjust="spacing" textLength="90.8" x="202.2" y="145.9328">Result&lt;U,T&gt; add(unique_ptr&lt;T&gt; , bool)</text><ellipse cx="198.6" cy="151.1813" fill="#84BE84" rx="1.2" ry="1.2" style="stroke:#038048;stroke-width:0.4000000000000001;"/><text fill="#000000" font-family="sans-serif" font-size="5.6" font-style="italic" lengthAdjust="spacing" textLength="55.2" x="202.2" y="152.4953">bool contains(const U)</text><ellipse cx="198.6" cy="157.7438" fill="#84BE84" rx="1.2" ry="1.2" style="stroke:#038048;stroke-width:0.4000000000000001;"/><text fill="#000000" font-family="sans-serif" font-size="5.6" font-style="italic" lengthAdjust="spacing" textLength="91.6" x="202.2" y="159.0578">Result&lt;U , T&gt; contains(const T*) const</text><ellipse cx="198.6" cy="164.3063" fill="#84BE84" rx="1.2" ry="1.2" style="stroke:#038048;stroke-width:0.4000000000000001;"/><text fill="#000000" font-family="sans-serif" font-size="5.6" font-style="italic" lengthAdjust="spacing" textLength="45.6" x="202.2" y="165.6203">bool empty() const</text><ellipse cx="198.6" cy="170.8688" fill="#84BE84" rx="1.2" ry="1.2" style="stroke:#038048;stroke-width:0.4000000000000001;"/><text fill="#000000" font-family="sans-serif" font-size="5.6" font-style="italic" lengthAdjust="spacing" textLength="35.6" x="202.2" y="172.1828">int size() const</text><ellipse cx="198.6" cy="177.4313" fill="#84BE84" rx="1.2" ry="1.2" style="stroke:#038048;stroke-width:0.4000000000000001;"/><text fill="#000000" font-family="sans-serif" font-size="5.6" font-style="italic" lengthAdjust="spacing" textLength="129.2" x="202.2" y="178.7453">const map&lt;U , Storage&lt;U , T&gt;&gt;&amp; getConstData() const</text><ellipse cx="198.6" cy="183.9938" fill="#84BE84" rx="1.2" ry="1.2" style="stroke:#038048;stroke-width:0.4000000000000001;"/><text fill="#000000" font-family="sans-serif" font-size="5.6" lengthAdjust="spacing" textLength="85.6" x="202.2" y="185.3078">bool setPersistence(const U , bool)</text></g><polygon fill="none" points="277.1773,188.275,281.7485,195.4125,276.2998,196.7053" style="stroke:#181818;stroke-width:0.4000000000000001;"/><line style="stroke:#181818;stroke-width:0.4000000000000001;" x1="279.0242" x2="279.2" y1="196.0589" y2="196.8"/><line style="stroke:#181818;stroke-width:0.4000000000000001;" x1="264" x2="264" y1="77.2" y2="69.12"/><!--class IntegerResourceDB--><g id="elem_IntegerResourceDB"><rect codeLine="58" fill="#F1F1F1" height="25.7625" id="IntegerResourceDB" rx="1" ry="1" style="stroke:#181818;stroke-width:0.20000000000000004;" width="65.2" x="201.8" y="250.4"/><ellipse cx="207.8" cy="256.8" fill="#ADD1B2" rx="4.4" ry="4.4" style="stroke:#181818;stroke-width:0.4000000000000001;"/><path d="M207.8188,259.2813 C208.4188,259.2813 208.9125,259.0563 209.275,258.6313 L208.725,258.025 C208.5063,258.2625 208.2438,258.4188 207.925,258.4188 C207.2563,258.4188 206.7938,257.8875 206.7938,256.975 C206.7938,256.0875 207.2563,255.55 207.8813,255.55 C208.2063,255.55 208.4438,255.675 208.6563,255.8688 L209.2063,255.25 C208.9063,254.9563 208.4438,254.6875 207.8813,254.6875 C206.7,254.6875 205.7688,255.5438 205.7688,257.0125 C205.7688,258.5 206.7188,259.2813 207.8188,259.2813 Z " fill="#000000"/><text fill="#000000" font-family="sans-serif" font-size="5.6" lengthAdjust="spacing" textLength="48" x="213.4" y="258.7141">IntegerResourceDB</text><rect fill="#FFFFFF" height="6.425" style="stroke:#181818;stroke-width:0.4000000000000001;stroke-dasharray:2.0,2.0;" width="3.6" x="264.6" y="249.2"/><text fill="#000000" font-family="sans-serif" font-size="4.8" font-style="italic" lengthAdjust="spacing" textLength="2.8" x="265" y="254.0531">T</text><line style="stroke:#181818;stroke-width:0.20000000000000004;" x1="202.2" x2="266.6" y1="263.2" y2="263.2"/><line style="stroke:#181818;stroke-width:0.20000000000000004;" x1="202.2" x2="266.6" y1="266.4" y2="266.4"/><ellipse cx="206.2" cy="271.8813" fill="#84BE84" rx="1.2" ry="1.2" style="stroke:#038048;stroke-width:0.4000000000000001;"/><text fill="#000000" font-family="sans-serif" font-size="5.6" font-style="italic" lengthAdjust="spacing" textLength="51.2" x="209.8" y="273.1953">int firstFreeId() const</text></g><polygon fill="none" points="234.888,276.1625,237.9888,284.0508,232.3928,284.2628" style="stroke:#181818;stroke-width:0.4000000000000001;"/><line style="stroke:#181818;stroke-width:0.4000000000000001;" x1="235.1908" x2="235.2" y1="284.1568" y2="284.4"/><line style="stroke:#181818;stroke-width:0.4000000000000001;" x1="242.9428" x2="248.328" y1="250.4" y2="242.28"/><!--class INodeDatabase--><g id="elem_INodeDatabase"><rect codeLine="62" fill="#F1F1F1" height="65.1375" id="INodeDatabase" rx="1" ry="1" style="stroke:#181818;stroke-width:0.20000000000000004;" width="120.4" x="9" y="356.2"/><ellipse cx="48.1" cy="362.6" fill="#ADD1B2" rx="4.4" ry="4.4" style="stroke:#181818;stroke-width:0.4000000000000001;"/><path d="M48.1188,365.0813 C48.7188,365.0813 49.2125,364.8563 49.575,364.4313 L49.025,363.825 C48.8063,364.0625 48.5438,364.2188 48.225,364.2188 C47.5563,364.2188 47.0938,363.6875 47.0938,362.775 C47.0938,361.8875 47.5563,361.35 48.1813,361.35 C48.5063,361.35 48.7438,361.475 48.9563,361.6688 L49.5063,361.05 C49.2063,360.7563 48.7438,360.4875 48.1813,360.4875 C47,360.4875 46.0688,361.3438 46.0688,362.8125 C46.0688,364.3 47.0188,365.0813 48.1188,365.0813 Z " fill="#000000"/><text fill="#000000" font-family="sans-serif" font-size="5.6" lengthAdjust="spacing" textLength="38.8" x="56.3" y="364.5141">INodeDatabase</text><line style="stroke:#181818;stroke-width:0.20000000000000004;" x1="9.4" x2="129" y1="369" y2="369"/><line style="stroke:#181818;stroke-width:0.20000000000000004;" x1="9.4" x2="129" y1="372.2" y2="372.2"/><ellipse cx="13.4" cy="377.6813" fill="#84BE84" rx="1.2" ry="1.2" style="stroke:#038048;stroke-width:0.4000000000000001;"/><text fill="#000000" font-family="sans-serif" font-size="5.6" lengthAdjust="spacing" textLength="110" x="17" y="378.9953">INodeDatabase(controller::ProgressStatus*)</text><ellipse cx="13.4" cy="384.2438" fill="#84BE84" rx="1.2" ry="1.2" style="stroke:#038048;stroke-width:0.4000000000000001;"/><text fill="#000000" font-family="sans-serif" font-size="5.6" lengthAdjust="spacing" textLength="28.8" x="17" y="385.5578">void clean()</text><ellipse cx="13.4" cy="390.8063" fill="#84BE84" rx="1.2" ry="1.2" style="stroke:#038048;stroke-width:0.4000000000000001;"/><text fill="#000000" font-family="sans-serif" font-size="5.6" lengthAdjust="spacing" textLength="30" x="17" y="392.1203">void purge()</text><ellipse cx="13.4" cy="397.3688" fill="#84BE84" rx="1.2" ry="1.2" style="stroke:#038048;stroke-width:0.4000000000000001;"/><text fill="#000000" font-family="sans-serif" font-size="5.6" lengthAdjust="spacing" textLength="52" x="17" y="398.6828">NodeInterface* get(int) const</text><ellipse cx="13.4" cy="403.9313" fill="#84BE84" rx="1.2" ry="1.2" style="stroke:#038048;stroke-width:0.4000000000000001;"/><text fill="#000000" font-family="sans-serif" font-size="5.6" lengthAdjust="spacing" textLength="40.8" x="17" y="405.2453">bool remove(int)</text><ellipse cx="13.4" cy="410.4938" fill="#84BE84" rx="1.2" ry="1.2" style="stroke:#038048;stroke-width:0.4000000000000001;"/><text fill="#000000" font-family="sans-serif" font-size="5.6" lengthAdjust="spacing" textLength="66.8" x="17" y="411.8078">bool remove(const NodeInterface*)</text><ellipse cx="13.4" cy="417.0563" fill="#84BE84" rx="1.2" ry="1.2" style="stroke:#038048;stroke-width:0.4000000000000001;"/><text fill="#000000" font-family="sans-serif" font-size="5.6" lengthAdjust="spacing" textLength="44" x="17" y="418.3703">bool contains(int)</text></g><!--class ShaderDatabase--><g id="elem_ShaderDatabase"><rect codeLine="72" fill="#F1F1F1" height="84.825" id="ShaderDatabase" rx="1" ry="1" style="stroke:#181818;stroke-width:0.20000000000000004;" width="163.6" x="289" y="220.8"/><ellipse cx="348.3" cy="227.2" fill="#ADD1B2" rx="4.4" ry="4.4" style="stroke:#181818;stroke-width:0.4000000000000001;"/><path d="M348.3188,229.6813 C348.9188,229.6813 349.4125,229.4563 349.775,229.0313 L349.225,228.425 C349.0063,228.6625 348.7438,228.8188 348.425,228.8188 C347.7563,228.8188 347.2938,228.2875 347.2938,227.375 C347.2938,226.4875 347.7563,225.95 348.3813,225.95 C348.7063,225.95 348.9438,226.075 349.1563,226.2688 L349.7063,225.65 C349.4063,225.3563 348.9438,225.0875 348.3813,225.0875 C347.2,225.0875 346.2688,225.9438 346.2688,227.4125 C346.2688,228.9 347.2188,229.6813 348.3188,229.6813 Z " fill="#000000"/><text fill="#000000" font-family="sans-serif" font-size="5.6" lengthAdjust="spacing" textLength="41.6" x="356.5" y="229.1141">ShaderDatabase</text><line style="stroke:#181818;stroke-width:0.20000000000000004;" x1="289.4" x2="452.2" y1="233.6" y2="233.6"/><line style="stroke:#181818;stroke-width:0.20000000000000004;" x1="289.4" x2="452.2" y1="236.8" y2="236.8"/><ellipse cx="293.4" cy="242.2813" fill="#84BE84" rx="1.2" ry="1.2" style="stroke:#038048;stroke-width:0.4000000000000001;"/><text fill="#000000" font-family="sans-serif" font-size="5.6" lengthAdjust="spacing" textLength="114.8" x="297" y="243.5953">ShaderDatabase((controller::ProgressStatus*)</text><ellipse cx="293.4" cy="248.8438" fill="#84BE84" rx="1.2" ry="1.2" style="stroke:#038048;stroke-width:0.4000000000000001;"/><text fill="#000000" font-family="sans-serif" font-size="5.6" lengthAdjust="spacing" textLength="28.8" x="297" y="250.1578">void clean()</text><ellipse cx="293.4" cy="255.4063" fill="#84BE84" rx="1.2" ry="1.2" style="stroke:#038048;stroke-width:0.4000000000000001;"/><text fill="#000000" font-family="sans-serif" font-size="5.6" lengthAdjust="spacing" textLength="30" x="297" y="256.7203">void purge()</text><ellipse cx="293.4" cy="261.9688" fill="#84BE84" rx="1.2" ry="1.2" style="stroke:#038048;stroke-width:0.4000000000000001;"/><text fill="#000000" font-family="sans-serif" font-size="5.6" lengthAdjust="spacing" textLength="67.6" x="297" y="263.2828">bool remove(Shader::TYPE)</text><ellipse cx="293.4" cy="268.5313" fill="#84BE84" rx="1.2" ry="1.2" style="stroke:#038048;stroke-width:0.4000000000000001;"/><text fill="#000000" font-family="sans-serif" font-size="5.6" lengthAdjust="spacing" textLength="69.6" x="297" y="269.8453">bool remove(const Shader*)</text><ellipse cx="293.4" cy="275.0938" fill="#84BE84" rx="1.2" ry="1.2" style="stroke:#038048;stroke-width:0.4000000000000001;"/><text fill="#000000" font-family="sans-serif" font-size="5.6" lengthAdjust="spacing" textLength="44" x="297" y="276.4078">bool contains(int)</text><ellipse cx="293.4" cy="281.6563" fill="#84BE84" rx="1.2" ry="1.2" style="stroke:#038048;stroke-width:0.4000000000000001;"/><text fill="#000000" font-family="sans-serif" font-size="5.6" lengthAdjust="spacing" textLength="79.2" x="297" y="282.9703">Shader::TYPE firstFreeId() const</text><ellipse cx="293.4" cy="288.2188" fill="#84BE84" rx="1.2" ry="1.2" style="stroke:#038048;stroke-width:0.4000000000000001;"/><text fill="#000000" font-family="sans-serif" font-size="5.6" lengthAdjust="spacing" textLength="153.2" x="297" y="289.5328">Result&lt;Shader::TYPE, Shader&gt; add(unique_ptr&lt;Shader&gt; , bool)</text><ellipse cx="293.4" cy="294.7813" fill="#84BE84" rx="1.2" ry="1.2" style="stroke:#038048;stroke-width:0.4000000000000001;"/><text fill="#000000" font-family="sans-serif" font-size="5.6" lengthAdjust="spacing" textLength="39.6" x="297" y="296.0953">void recompile()</text><ellipse cx="293.4" cy="301.3438" fill="#84BE84" rx="1.2" ry="1.2" style="stroke:#038048;stroke-width:0.4000000000000001;"/><text fill="#000000" font-family="sans-serif" font-size="5.6" lengthAdjust="spacing" textLength="56" x="297" y="302.6578">void initializeShaders()</text></g><!--class ImageDatabase--><g id="elem_ImageDatabase"><rect codeLine="85" fill="#F1F1F1" height="117.6375" id="ImageDatabase" rx="1" ry="1" style="stroke:#181818;stroke-width:0.20000000000000004;" width="271.2" x="339.2" y="330"/><ellipse cx="451.1" cy="336.4" fill="#ADD1B2" rx="4.4" ry="4.4" style="stroke:#181818;stroke-width:0.4000000000000001;"/><path d="M451.1188,338.8813 C451.7188,338.8813 452.2125,338.6563 452.575,338.2313 L452.025,337.625 C451.8063,337.8625 451.5438,338.0188 451.225,338.0188 C450.5563,338.0188 450.0938,337.4875 450.0938,336.575 C450.0938,335.6875 450.5563,335.15 451.1813,335.15 C451.5063,335.15 451.7438,335.275 451.9563,335.4688 L452.5063,334.85 C452.2063,334.5563 451.7438,334.2875 451.1813,334.2875 C450,334.2875 449.0688,335.1438 449.0688,336.6125 C449.0688,338.1 450.0188,338.8813 451.1188,338.8813 Z " fill="#000000"/><text fill="#000000" font-family="sans-serif" font-size="5.6" lengthAdjust="spacing" textLength="39.6" x="459.3" y="338.3141">ImageDatabase</text><rect fill="#FFFFFF" height="6.425" style="stroke:#181818;stroke-width:0.4000000000000001;stroke-dasharray:2.0,2.0;" width="3.6" x="608" y="328.8"/><text fill="#000000" font-family="sans-serif" font-size="4.8" font-style="italic" lengthAdjust="spacing" textLength="2.8" x="608.4" y="333.6531">T</text><line style="stroke:#181818;stroke-width:0.20000000000000004;" x1="339.6" x2="610" y1="342.8" y2="342.8"/><rect fill="none" height="2.4" style="stroke:#C82930;stroke-width:0.4000000000000001;" width="2.4" x="342.4" y="347.0813"/><text fill="#000000" font-family="sans-serif" font-size="5.6" lengthAdjust="spacing" textLength="86.4" x="347.2" y="349.5953">unique_elements : map&lt;string , int&gt;</text><rect fill="none" height="2.4" style="stroke:#C82930;stroke-width:0.4000000000000001;" width="2.4" x="342.4" y="353.6438"/><text fill="#000000" font-family="sans-serif" font-size="5.6" lengthAdjust="spacing" textLength="164" x="347.2" y="356.1578">subscribers : vector&lt;ISubscriber&lt;event::ImageUpdateMessage*&gt;*&gt;</text><line style="stroke:#181818;stroke-width:0.20000000000000004;" x1="339.6" x2="610" y1="359.125" y2="359.125"/><ellipse cx="343.6" cy="364.6063" fill="#84BE84" rx="1.2" ry="1.2" style="stroke:#038048;stroke-width:0.4000000000000001;"/><text fill="#000000" font-family="sans-serif" font-size="5.6" lengthAdjust="spacing" textLength="110.8" x="347.2" y="365.9203">ImageDatabase(controller::ProgressStatus*)</text><rect fill="#F24D5C" height="2.4" style="stroke:#C82930;stroke-width:0.4000000000000001;" width="2.4" x="342.4" y="369.9688"/><text fill="#000000" font-family="sans-serif" font-size="5.6" lengthAdjust="spacing" textLength="72.8" x="347.2" y="372.4828">void notifyImageSelected(int)</text><rect fill="#F24D5C" height="2.4" style="stroke:#C82930;stroke-width:0.4000000000000001;" width="2.4" x="342.4" y="376.5313"/><text fill="#000000" font-family="sans-serif" font-size="5.6" lengthAdjust="spacing" textLength="67.2" x="347.2" y="379.0453">void notifyImageDelete(int)</text><rect fill="#F24D5C" height="2.4" style="stroke:#C82930;stroke-width:0.4000000000000001;" width="2.4" x="342.4" y="383.0938"/><text fill="#000000" font-family="sans-serif" font-size="5.6" lengthAdjust="spacing" textLength="62" x="347.2" y="385.6078">void notifyImageAdd(int)</text><ellipse cx="343.6" cy="390.8563" fill="#84BE84" rx="1.2" ry="1.2" style="stroke:#038048;stroke-width:0.4000000000000001;"/><text fill="#000000" font-family="sans-serif" font-size="5.6" lengthAdjust="spacing" textLength="28.8" x="347.2" y="392.1703">void clean()</text><ellipse cx="343.6" cy="397.4188" fill="#84BE84" rx="1.2" ry="1.2" style="stroke:#038048;stroke-width:0.4000000000000001;"/><text fill="#000000" font-family="sans-serif" font-size="5.6" lengthAdjust="spacing" textLength="30" x="347.2" y="398.7328">void purge()</text><ellipse cx="343.6" cy="403.9813" fill="#84BE84" rx="1.2" ry="1.2" style="stroke:#038048;stroke-width:0.4000000000000001;"/><text fill="#000000" font-family="sans-serif" font-size="5.6" lengthAdjust="spacing" textLength="260.8" x="347.2" y="405.2953">Result&lt;int, image::ThumbnailImageHolder&lt;T&gt;&gt; add(unique_ptr&lt;image::ThumbnailImageHolder&lt;T&gt;&gt; , bool)</text><ellipse cx="343.6" cy="410.5438" fill="#84BE84" rx="1.2" ry="1.2" style="stroke:#038048;stroke-width:0.4000000000000001;"/><text fill="#000000" font-family="sans-serif" font-size="5.6" lengthAdjust="spacing" textLength="46.8" x="347.2" y="411.8578">void isSelected(int)</text><ellipse cx="343.6" cy="417.1063" fill="#84BE84" rx="1.2" ry="1.2" style="stroke:#038048;stroke-width:0.4000000000000001;"/><text fill="#000000" font-family="sans-serif" font-size="5.6" lengthAdjust="spacing" textLength="101.2" x="347.2" y="418.4203">image::Metadata getMetadata(int) const</text><ellipse cx="343.6" cy="423.6688" fill="#84BE84" rx="1.2" ry="1.2" style="stroke:#038048;stroke-width:0.4000000000000001;"/><text fill="#000000" font-family="sans-serif" font-size="5.6" lengthAdjust="spacing" textLength="102.8" x="347.2" y="424.9828">const QPixmap&amp; getThumbnail(int) const</text><ellipse cx="343.6" cy="430.2313" fill="#84BE84" rx="1.2" ry="1.2" style="stroke:#038048;stroke-width:0.4000000000000001;"/><text fill="#000000" font-family="sans-serif" font-size="5.6" lengthAdjust="spacing" textLength="62" x="347.2" y="431.5453">void attach(Subscriber&amp;)</text><ellipse cx="343.6" cy="436.7938" fill="#84BE84" rx="1.2" ry="1.2" style="stroke:#038048;stroke-width:0.4000000000000001;"/><text fill="#000000" font-family="sans-serif" font-size="5.6" lengthAdjust="spacing" textLength="62.8" x="347.2" y="438.1078">void detach(Subscriber&amp;)</text><ellipse cx="343.6" cy="443.3563" fill="#84BE84" rx="1.2" ry="1.2" style="stroke:#038048;stroke-width:0.4000000000000001;"/><text fill="#000000" font-family="sans-serif" font-size="5.6" lengthAdjust="spacing" textLength="164.8" x="347.2" y="444.6703">void notify(observer::Data&lt;event::ImageUpdateMessage*&gt;&amp;) const</text></g><!--class TextureDatabase--><g id="elem_TextureDatabase"><rect codeLine="103" fill="#F1F1F1" height="91.3875" id="TextureDatabase" rx="1" ry="1" style="stroke:#181818;stroke-width:0.20000000000000004;" width="181.6" x="143.6" y="343.2"/><ellipse cx="211.3" cy="349.6" fill="#ADD1B2" rx="4.4" ry="4.4" style="stroke:#181818;stroke-width:0.4000000000000001;"/><path d="M211.3188,352.0813 C211.9188,352.0813 212.4125,351.8563 212.775,351.4313 L212.225,350.825 C212.0063,351.0625 211.7438,351.2188 211.425,351.2188 C210.7563,351.2188 210.2938,350.6875 210.2938,349.775 C210.2938,348.8875 210.7563,348.35 211.3813,348.35 C211.7063,348.35 211.9438,348.475 212.1563,348.6688 L212.7063,348.05 C212.4063,347.7563 211.9438,347.4875 211.3813,347.4875 C210.2,347.4875 209.2688,348.3438 209.2688,349.8125 C209.2688,351.3 210.2188,352.0813 211.3188,352.0813 Z " fill="#000000"/><text fill="#000000" font-family="sans-serif" font-size="5.6" lengthAdjust="spacing" textLength="42.8" x="219.5" y="351.5141">TextureDatabase</text><line style="stroke:#181818;stroke-width:0.20000000000000004;" x1="144" x2="324.8" y1="356" y2="356"/><rect fill="none" height="2.4" style="stroke:#C82930;stroke-width:0.4000000000000001;" width="2.4" x="146.8" y="360.2813"/><text fill="#000000" font-family="sans-serif" font-size="5.6" lengthAdjust="spacing" textLength="84.4" x="151.6" y="362.7953">unique_textures : map&lt;string , int&gt;</text><line style="stroke:#181818;stroke-width:0.20000000000000004;" x1="144" x2="324.8" y1="365.7625" y2="365.7625"/><ellipse cx="148" cy="371.2438" fill="#84BE84" rx="1.2" ry="1.2" style="stroke:#038048;stroke-width:0.4000000000000001;"/><text fill="#000000" font-family="sans-serif" font-size="5.6" lengthAdjust="spacing" textLength="116" x="151.6" y="372.5578">TextureDatabase((controller::ProgressStatus*)</text><ellipse cx="148" cy="377.8063" fill="#84BE84" rx="1.2" ry="1.2" style="stroke:#038048;stroke-width:0.4000000000000001;"/><text fill="#000000" font-family="sans-serif" font-size="5.6" lengthAdjust="spacing" textLength="28.8" x="151.6" y="379.1203">void clean()</text><ellipse cx="148" cy="384.3688" fill="#84BE84" rx="1.2" ry="1.2" style="stroke:#038048;stroke-width:0.4000000000000001;"/><text fill="#000000" font-family="sans-serif" font-size="5.6" lengthAdjust="spacing" textLength="30" x="151.6" y="385.6828">void purge()</text><ellipse cx="148" cy="390.9313" fill="#84BE84" rx="1.2" ry="1.2" style="stroke:#038048;stroke-width:0.4000000000000001;"/><text fill="#000000" font-family="sans-serif" font-size="5.6" lengthAdjust="spacing" textLength="40.8" x="151.6" y="392.2453">bool remove(int)</text><ellipse cx="148" cy="397.4938" fill="#84BE84" rx="1.2" ry="1.2" style="stroke:#038048;stroke-width:0.4000000000000001;"/><text fill="#000000" font-family="sans-serif" font-size="5.6" lengthAdjust="spacing" textLength="70.8" x="151.6" y="398.8078">bool remove(const Texture*)</text><ellipse cx="148" cy="404.0563" fill="#84BE84" rx="1.2" ry="1.2" style="stroke:#038048;stroke-width:0.4000000000000001;"/><text fill="#000000" font-family="sans-serif" font-size="5.6" lengthAdjust="spacing" textLength="130" x="151.6" y="405.3703">Result&lt;int , Texture&gt; add(unique_ptr&lt;Texture&gt; , bool)</text><ellipse cx="148" cy="410.6188" fill="#84BE84" rx="1.2" ry="1.2" style="stroke:#038048;stroke-width:0.4000000000000001;"/><text fill="#000000" font-family="sans-serif" font-size="5.6" lengthAdjust="spacing" textLength="171.2" x="151.6" y="411.9328">vector&lt;Result&lt;int , Texture&gt;&gt; getTextureByType(Texture::TYPE) const</text><ellipse cx="148" cy="417.1813" fill="#84BE84" rx="1.2" ry="1.2" style="stroke:#038048;stroke-width:0.4000000000000001;"/><text fill="#000000" font-family="sans-serif" font-size="5.6" lengthAdjust="spacing" textLength="46.8" x="151.6" y="418.4953">bool empty() const</text><ellipse cx="148" cy="423.7438" fill="#84BE84" rx="1.2" ry="1.2" style="stroke:#038048;stroke-width:0.4000000000000001;"/><text fill="#000000" font-family="sans-serif" font-size="5.6" lengthAdjust="spacing" textLength="147.6" x="151.6" y="425.0578">Result&lt;int , Texture&gt; getUniqueTexture(const string&amp;) const</text><ellipse cx="148" cy="430.3063" fill="#84BE84" rx="1.2" ry="1.2" style="stroke:#038048;stroke-width:0.4000000000000001;"/><text fill="#000000" font-family="sans-serif" font-size="5.6" lengthAdjust="spacing" textLength="101.6" x="151.6" y="431.6203">bool removeUniqueTextureReference(int)</text></g><!--class IAxObject--><g id="elem_IAxObject"><rect codeLine="5" fill="#F1F1F1" height="19.2" id="IAxObject" rx="1" ry="1" style="stroke:#181818;stroke-width:0.20000000000000004;" width="36" x="246" y="16.4"/><ellipse cx="252" cy="22.8" fill="#B4A7E5" rx="4.4" ry="4.4" style="stroke:#181818;stroke-width:0.4000000000000001;"/><path d="M250.5063,25.2 L253.575,25.2 L253.575,24.3563 L252.5438,24.3563 L252.5438,21.6125 L253.575,21.6125 L253.575,20.7688 L250.5063,20.7688 L250.5063,21.6125 L251.5375,21.6125 L251.5375,24.3563 L250.5063,24.3563 L250.5063,25.2 Z " fill="#000000"/><text fill="#000000" font-family="sans-serif" font-size="5.6" font-style="italic" lengthAdjust="spacing" textLength="23.2" x="257.6" y="24.7141">IAxObject</text><line style="stroke:#181818;stroke-width:0.20000000000000004;" x1="246.4" x2="281.6" y1="29.2" y2="29.2"/><line style="stroke:#181818;stroke-width:0.20000000000000004;" x1="246.4" x2="281.6" y1="32.4" y2="32.4"/></g><!--class IPublisher--><g id="elem_IPublisher"><rect codeLine="6" fill="#F1F1F1" height="19.2" id="IPublisher" rx="1" ry="1" style="stroke:#181818;stroke-width:0.20000000000000004;" width="122.4" x="623.2" y="253.6"/><ellipse cx="629.2" cy="260" fill="#B4A7E5" rx="4.4" ry="4.4" style="stroke:#181818;stroke-width:0.4000000000000001;"/><path d="M627.7063,262.4 L630.775,262.4 L630.775,261.5563 L629.7438,261.5563 L629.7438,258.8125 L630.775,258.8125 L630.775,257.9688 L627.7063,257.9688 L627.7063,258.8125 L628.7375,258.8125 L628.7375,261.5563 L627.7063,261.5563 L627.7063,262.4 Z " fill="#000000"/><text fill="#000000" font-family="sans-serif" font-size="5.6" font-style="italic" lengthAdjust="spacing" textLength="24" x="634.8" y="261.9141">IPublisher</text><rect fill="#FFFFFF" height="6.425" style="stroke:#181818;stroke-width:0.4000000000000001;stroke-dasharray:2.0,2.0;" width="84.8" x="662" y="252.4"/><text fill="#000000" font-family="sans-serif" font-size="4.8" font-style="italic" lengthAdjust="spacing" textLength="84" x="662.4" y="257.2531">database::event::ImageUpdateMessage*</text><line style="stroke:#181818;stroke-width:0.20000000000000004;" x1="623.6" x2="745.2" y1="266.4" y2="266.4"/><line style="stroke:#181818;stroke-width:0.20000000000000004;" x1="623.6" x2="745.2" y1="269.6" y2="269.6"/></g><!--class ISubscriber--><g id="elem_ISubscriber"><rect codeLine="7" fill="#F1F1F1" height="19.2" id="ISubscriber" rx="1" ry="1" style="stroke:#181818;stroke-width:0.20000000000000004;" width="126" x="411.8" y="479.2"/><ellipse cx="417.8" cy="485.6" fill="#B4A7E5" rx="4.4" ry="4.4" style="stroke:#181818;stroke-width:0.4000000000000001;"/><path d="M416.3063,488 L419.375,488 L419.375,487.1563 L418.3438,487.1563 L418.3438,484.4125 L419.375,484.4125 L419.375,483.5688 L416.3063,483.5688 L416.3063,484.4125 L417.3375,484.4125 L417.3375,487.1563 L416.3063,487.1563 L416.3063,488 Z " fill="#000000"/><text fill="#000000" font-family="sans-serif" font-size="5.6" font-style="italic" lengthAdjust="spacing" textLength="27.6" x="423.4" y="487.5141">ISubscriber</text><rect fill="#FFFFFF" height="6.425" style="stroke:#181818;stroke-width:0.4000000000000001;stroke-dasharray:2.0,2.0;" width="84.8" x="454.2" y="478"/><text fill="#000000" font-family="sans-serif" font-size="4.8" font-style="italic" lengthAdjust="spacing" textLength="84" x="454.6" y="482.8531">database::event::ImageUpdateMessage*</text><line style="stroke:#181818;stroke-width:0.20000000000000004;" x1="412.2" x2="537.4" y1="492" y2="492"/><line style="stroke:#181818;stroke-width:0.20000000000000004;" x1="412.2" x2="537.4" y1="495.2" y2="495.2"/></g><!--reverse link IAxObject to IResourceDB--><g id="link_IAxObject_IResourceDB"><path codeLine="122" d="M264,42.82 C264,50.804 264,55.92 264,69.12 " fill="none" id="IAxObject-backto-IResourceDB" style="stroke:#181818;stroke-width:0.4000000000000001;"/><polygon fill="none" points="264,35.62,261.6,42.82,266.4,42.82,264,35.62" style="stroke:#181818;stroke-width:0.4000000000000001;"/></g><!--reverse link IResourceDB to IntegerResourceDB--><g id="link_IResourceDB_IntegerResourceDB"><path codeLine="123" d="M279.2,196.8 C279.2,196.8 261.48,222.904 248.328,242.28 " fill="none" id="IResourceDB-backto-IntegerResourceDB" style="stroke:#181818;stroke-width:0.4000000000000001;"/></g><!--reverse link IResourceDB to ShaderDatabase--><g id="link_IResourceDB_ShaderDatabase"><path codeLine="124" d="M279.2,196.8 C279.2,196.8 294.392,207.744 312.4,220.72 " fill="none" id="IResourceDB-backto-ShaderDatabase" style="stroke:#181818;stroke-width:0.4000000000000001;"/></g><!--reverse link IntegerResourceDB to INodeDatabase--><g id="link_IntegerResourceDB_INodeDatabase"><path codeLine="125" d="M235.2,284.4 C235.2,284.4 177.296,303.86 136.8,330 C125.072,337.572 113.236,347.036 102.816,356.128 " fill="none" id="IntegerResourceDB-backto-INodeDatabase" style="stroke:#181818;stroke-width:0.4000000000000001;"/></g><!--reverse link IntegerResourceDB to TextureDatabase--><g id="link_IntegerResourceDB_TextureDatabase"><path codeLine="126" d="M235.2,284.4 C235.2,284.4 234.964,315.06 234.748,343.088 " fill="none" id="IntegerResourceDB-backto-TextureDatabase" style="stroke:#181818;stroke-width:0.4000000000000001;"/></g><!--reverse link IntegerResourceDB to ImageDatabase--><g id="link_IntegerResourceDB_ImageDatabase"><path codeLine="127" d="M235.2,284.4 C235.2,284.4 261.108,296.384 282,305.6 C300.456,313.744 319.948,322.236 339.164,330.548 " fill="none" id="IntegerResourceDB-backto-ImageDatabase" style="stroke:#181818;stroke-width:0.4000000000000001;"/></g><!--reverse link IPublisher to ImageDatabase--><g id="link_IPublisher_ImageDatabase"><path codeLine="128" d="M663.7434,276.6487 C650.0994,285.2407 635.208,294.52 616.8,305.6 C603.596,313.548 589.648,321.828 575.852,329.944 " fill="none" id="IPublisher-backto-ImageDatabase" style="stroke:#181818;stroke-width:0.4000000000000001;"/><polygon fill="none" points="669.836,272.812,662.4645,274.6178,665.0223,278.6796,669.836,272.812" style="stroke:#181818;stroke-width:0.4000000000000001;"/></g><!--reverse link ImageDatabase to ISubscriber--><g id="link_ImageDatabase_ISubscriber"><path codeLine="129" d="M474.8,452.424 C474.8,464.704 474.8,471.44 474.8,479.088 " fill="none" id="ImageDatabase-backto-ISubscriber" style="stroke:#181818;stroke-width:0.4000000000000001;"/><polygon fill="none" points="474.8,447.624,473.2,450.024,474.8,452.424,476.4,450.024,474.8,447.624" style="stroke:#181818;stroke-width:0.4000000000000001;"/><polygon fill="#000000" points="476.8,465.8469,477.9756,462.2288,475.6244,462.2288,476.8,465.8469" style="stroke:#000000;stroke-width:0.4000000000000001;"/><text fill="#000000" font-family="sans-serif" font-size="5.2" lengthAdjust="spacing" textLength="17.2" x="480.4" y="465.6242">notifies</text><text fill="#000000" font-family="sans-serif" font-size="5.2" lengthAdjust="spacing" textLength="2.8" x="471.9278" y="455.6375">1</text><text fill="#000000" font-family="sans-serif" font-size="5.2" lengthAdjust="spacing" textLength="7.6" x="466.2263" y="474.6668">1..*</text></g><!--SRC=[jLVVJzim47xFNs7nmD92aTXZX2h1sBG-i7KqdRGdv2H7yPR4cUrKGCV_ldFi94wJ51ws2gJcxhlp_VXybyfVB2-ee1dP25uMY_m115CqZu6yzpoMAn3t51yMbuzVevyGgzsBArsMKSeasbmaLD68IWW2s4AkWc2HqGsi2vJ33KY93zEvQxeg8naB5htPDgSPo4BRCgtUULwSKYb9-51cKKvPMbbzvcc2BiCv1chqDw2eFW457lwrRdWaGMn1x2pmse0Guu3gs9hZLeeBFETYJKv9E2SxZ-1dXivqTKX0ofpzBk6kK3e8gsG9AjRseG0XcLIOA0eZpbChtzAqmZMY4n9EoGQKFo4npwMomYr7c0IrIFmrUfvOyLf3KTO5QsU4oMLpvh3-kpvxv9p6DWPVmoUkAUehMwQUhFAbBjGjo39LjauxQ-HKugIjMJZLPWuvq9QN8eRhguxzZaPI2Hghbpg-E0MQ-vCHRL6A3GnfRM6hTCdQpRi3gr8KaF4jDDYteCBf06nDxfcGwfC0s6jJ1rQNxHJ9HPF4x_09Qz6se1y4kbIKvV90i9skx1jWt0TB0Lc1VHx5O0E9PCymZZ37PBIe0kXUfVcnxia7ZT0tiUF4-RJ4Subf4-xKn_dCcdjyXuSZuqP2QDcxG39kG3X4j2JiPJpKrTRD5vx0TJD3J08TeGvT2Pwc889WAVX6uCHRAQfAEPsuLz6b-W2_hLj3R8nhu9vRZchbWDYKq3Zfw1kIL8PDQgi7YfDsFxUkrFztsRcXcaE28Fon_3YUYa4ToiKDsNWRlQFDpN7HfzQsTrDhiKj7cvM0c6S5Iw6RBCkPOZX9dy7OIjyfTRNPwfhMH4HIsnCXXGn7kxIyHdgoV8DdOuxr1fBDjjMeBOvTBYxS7NnWyqxdDS7SC5xlxCnabdF5xfygsnL66Yj8skhtCTU8KN08SPaaRllUHX_RFRGxDUyFsC7X5uTUCr-33pIPoNwg9_MvzGk9lgdrz_wDDHp-jcIFsDDgD3O1zC7LeLGf6Z_uRLEFEp4bS51j2kpNBqL1e1jzY1R7lM4NmgCgnTwuQrYgZ7QSfIVx3lxJz3Wu_sm8qpvlz8OmolvYhkLxL33NRD35lEgeURXw2fyAyEsJ7MlzyTtVlcFXeUjr5PsLsDnCoOz7DqF7vXRkGLIxjHxx-F-EG8vKwRqTexBvXK0k_incxYkSvtotoltbseTqzuZNix2Et4qw1jfZrQWlTxfvxK-RGQtxH8xEZmX7pD7vsTdqoFrfWrolxXL3siyzxoy0]--></g></svg>